<?xml version="1.0" encoding="utf-8"?>
<!-- Generator: Adobe Illustrator 19.0.1, SVG Export Plug-In . SVG Version: 6.00 Build 0)  -->
<svg version="1.1" baseProfile="basic" xmlns="http://www.w3.org/2000/svg" xmlns:xlink="http://www.w3.org/1999/xlink" x="0px"
	 y="0px" viewBox="0 0 500 500" xml:space="preserve">
<style type="text/css">
	.st0{fill:#FFFFFF;}
	.st1{fill:#3E4751;}
	.st2{fill:#CC9650;}
	.st3{fill:#AA8163;}
	.st4{fill:#100C08;}
	.st5{font-family:'Ravie';}
	.st6{font-size:27.0677px;}
	.st7{fill:#CC9650;stroke:#100C08;stroke-miterlimit:10;}
	.st8{font-family:'Montserrat-Bold';}
	.st9{font-size:9.7879px;}
	.st10{font-family:'Montserrat-Medium';}
	.st11{font-size:7.7182px;}
	.st12{fill:none;}
</style>
<g id="BACKGROUND">
	<rect class="st0" width="500" height="500"/>
</g>
<g id="OBJECTS">
	<g>
		<g>
			<path class="st1" d="M332.2,290.3v-7.1c-1.6,0-3-1.2-3-2.7h-91.3c0,1.5-1.3,2.7-3,2.7v7.1c1.6,0,3,1.2,3,2.7h91.3
				C329.2,291.5,330.6,290.3,332.2,290.3z"/>
			<g>
				<path class="st2" d="M217.1,242.2l29.1-45.1c2.4-3.7,6.8-5.9,11.5-5.9h52.8c4.7,0,9.1,2.3,11.5,5.9l29.1,45.1h4.5l-30.2-46.9
					c-3.1-4.7-8.8-7.7-14.9-7.7h-52.8c-6.1,0-11.8,2.9-14.9,7.7l-30.2,46.9H217.1z"/>
				<path class="st2" d="M347.8,278L322,318c-2.4,3.7-6.8,5.9-11.5,5.9h-52.8c-4.7,0-9.1-2.3-11.5-5.9l-25.8-40h-4.5l26.9,41.8
					c3.1,4.7,8.8,7.7,14.9,7.7h52.8c6.1,0,11.8-2.9,14.9-7.7l26.9-41.8H347.8z"/>
			</g>
			<g>
				<path class="st1" d="M284.6,195.8c-3.6,0-7.1,0.6-10.4,1.6l11.2,26.8h29.9c0-0.3,0-0.6,0-0.9
					C315.4,208.2,301.7,195.8,284.6,195.8z M284.6,206.2c-1.5,0-2.7-1.1-2.7-2.4s1.2-2.4,2.7-2.4c1.5,0,2.7,1.1,2.7,2.4
					S286.1,206.2,284.6,206.2z M299.4,211.7c-1.5,0-2.7-1.1-2.7-2.4s1.2-2.4,2.7-2.4c1.5,0,2.7,1.1,2.7,2.4S300.9,211.7,299.4,211.7
					z M305.5,222.1c-1.5,0-2.7-1.1-2.7-2.4s1.2-2.4,2.7-2.4c1.5,0,2.7,1.1,2.7,2.4S307,222.1,305.5,222.1z"/>
				<path class="st1" d="M253.9,223.4c0,0.3,0,0.6,0,0.9h30.3l-11.1-26.4C261.8,202,253.9,211.9,253.9,223.4z M263.8,222.1
					c-1.5,0-2.7-1.1-2.7-2.4s1.2-2.4,2.7-2.4c1.5,0,2.7,1.1,2.7,2.4S265.3,222.1,263.8,222.1z M269.9,211.7c-1.5,0-2.7-1.1-2.7-2.4
					s1.2-2.4,2.7-2.4s2.7,1.1,2.7,2.4S271.4,211.7,269.9,211.7z"/>
			</g>
			<g>
				<path class="st1" d="M346.1,188.4c-0.4-0.5-1.2-0.6-1.5-0.1l-23.2,35.9h5.3l1.9-3.5c0.6-1.1,2.3-6,1.9-7.3c0,0,3.9,1.2,7-0.9
					c1.7-1.2,8.4-13.8,10.2-18.2C348.6,192.5,347.1,189.9,346.1,188.4z"/>
				<path class="st1" d="M248.1,224.3l-11.7-16.1c-0.5-0.6-0.4-1.4,0.1-2c1.1-1.4,1.3-3.4,0.2-5l-9.4-13.3c-0.2-0.3-0.6-0.4-0.9-0.2
					l-0.1,0c-0.3,0.2-0.4,0.5-0.2,0.8l6.8,10.5c0.4,0.5,0.2,1.3-0.4,1.6c-0.6,0.4-1.5,0.2-1.8-0.4l-6.8-10.6
					c-0.2-0.3-0.6-0.4-0.9-0.2c-0.3,0.2-0.4,0.5-0.2,0.8l6.8,10.5c0.4,0.5,0.2,1.3-0.4,1.6c-0.6,0.4-1.5,0.2-1.8-0.4l-6.8-10.6
					c-0.2-0.3-0.6-0.4-0.9-0.2l-0.1,0c-0.3,0.2-0.4,0.5-0.3,0.8l8.2,13.9c1,1.7,2.9,2.5,4.9,2.4c0.8-0.1,1.6,0.3,2,1l8.5,15H248.1z"
					/>
			</g>
			<g>
				<g>
					<g>
						<g>
							<path class="st3" d="M282.6,298.8c0.9,0.4,1.6,1.1,1.9,1.9c0.4,1.2,0.1,2.4-0.9,3.1c-0.9,0.6-2.2,0.7-3.2,0.2
								c-0.9-0.4-1.4-1.2-1.4-2c0-0.9,0.5-1.6,1.3-1.9c0.8-0.3,1.7-0.2,2.3,0.2c0.5,0.4,0.7,1,0.4,1.7c-0.2,0.6-0.8,1-1.3,0.9
								c-0.7,0-1-0.5-1.1-0.9c-0.1-0.4,0.2-0.8,0.7-0.9c0.1,0,0.2,0,0.3,0.1c0,0.1,0,0.2-0.2,0.3c-0.3,0.1-0.4,0.3-0.3,0.5
								c0,0.3,0.2,0.5,0.7,0.6c0.3,0,0.7-0.3,0.9-0.7c0.2-0.4,0.2-0.9-0.3-1.2c-0.5-0.3-1.2-0.4-1.8-0.1c-0.4,0.2-1,0.6-1.1,1.5
								c0,0.7,0.4,1.3,1.1,1.6c0.9,0.4,2,0.3,2.7-0.2c0.8-0.5,1.1-1.6,0.7-2.6c-0.2-0.6-1-2-3.6-2.1c-3-0.1-4.3,1.8-5.5,3.4
								c-0.4,0.6-0.8,1.1-1.2,1.5c-1,1-2.4,1.4-3.7,1c-1-0.3-1.8-1.1-1.8-2c-0.1-0.7,0.2-1.3,0.7-1.7c0.5-0.4,1.1-0.5,1.8-0.3
								c0.7,0.1,1.2,0.6,1.3,1.3c0.1,0.5-0.2,1-0.7,1.2c-0.4,0.1-0.7,0.2-1,0.1c-0.5-0.2-0.7-0.7-0.7-0.7c0-0.1,0-0.2,0.1-0.3
								c0.1,0,0.2,0,0.3,0.1l0,0c0,0,0.2,0.4,0.5,0.5c0.2,0.1,0.4,0.1,0.7,0c0.4-0.2,0.5-0.5,0.4-0.8c0-0.3-0.3-0.8-0.9-0.9
								c-0.5-0.1-1,0-1.4,0.3c-0.4,0.3-0.6,0.8-0.5,1.4c0,0.7,0.7,1.4,1.5,1.6c0.5,0.2,1.9,0.4,3.2-0.9c0.4-0.4,0.8-0.9,1.1-1.5
								c1.1-1.6,2.6-3.7,5.9-3.6C281.3,298.3,282,298.5,282.6,298.8z"/>
						</g>
						<g>
							<path class="st3" d="M280.3,299.3c0.1,0,0.1,0.1,0.1,0.2c0,0.1-0.1,0.2-0.2,0.2c0,0-2.4,0-4.3,2.8c-0.9,1.3-1.2,2.4-0.8,3.2
								c0.3,0.7,1.1,0.9,1.5,1c0.6,0.1,1.1-0.1,1.5-0.6c0.3-0.4,0.5-1,0.2-1.6c-0.4-0.6-0.9-0.6-1.2-0.6c-0.5,0.1-0.8,0.4-0.9,0.7
								c-0.1,0.3,0,0.5,0.1,0.7c0.1,0.2,0.4,0.2,0.6,0.2c0.3,0,0.5-0.2,0.5-0.4c0-0.1,0-0.2-0.1-0.3c-0.1-0.1-0.1-0.2-0.1-0.3
								c0.1-0.1,0.2-0.1,0.3-0.1c0.3,0.2,0.4,0.5,0.3,0.8c-0.1,0.4-0.5,0.6-0.9,0.6c-0.4,0-0.7-0.1-1-0.4c-0.3-0.3-0.3-0.6-0.2-1.1
								c0.1-0.5,0.7-1,1.3-1.1c0.7-0.1,1.3,0.2,1.6,0.8c0.4,0.6,0.3,1.4-0.2,2.1c-0.5,0.6-1.3,0.9-2,0.7c-0.5-0.1-1.4-0.4-1.8-1.2
								c-0.4-0.9-0.1-2.1,0.9-3.6C277.6,299.2,280.1,299.3,280.3,299.3C280.3,299.3,280.3,299.3,280.3,299.3z"/>
						</g>
					</g>
					<g>
						<g>
							<path class="st3" d="M286.2,298.8c-0.9,0.4-1.6,1.1-1.9,1.9c-0.4,1.2-0.1,2.4,0.9,3.1c0.9,0.6,2.2,0.7,3.2,0.2
								c0.9-0.4,1.4-1.2,1.4-2c0-0.9-0.5-1.6-1.3-1.9c-0.8-0.3-1.7-0.2-2.3,0.2c-0.5,0.4-0.7,1-0.4,1.7c0.2,0.6,0.8,1,1.3,0.9
								c0.7,0,1-0.5,1.1-0.9c0.1-0.4-0.2-0.8-0.7-0.9c-0.1,0-0.2,0-0.3,0.1c0,0.1,0,0.2,0.2,0.3c0.3,0.1,0.4,0.3,0.3,0.5
								c0,0.3-0.2,0.5-0.7,0.6c-0.3,0-0.7-0.3-0.9-0.7c-0.2-0.4-0.2-0.9,0.3-1.2c0.5-0.3,1.2-0.4,1.8-0.1c0.4,0.2,1,0.6,1.1,1.5
								c0,0.7-0.4,1.3-1.1,1.6c-0.9,0.4-2,0.3-2.7-0.2c-0.8-0.5-1.1-1.6-0.7-2.6c0.2-0.6,1-2,3.6-2.1c3-0.1,4.3,1.8,5.5,3.4
								c0.4,0.6,0.8,1.1,1.2,1.5c1,1,2.4,1.4,3.7,1c1-0.3,1.8-1.1,1.8-2c0.1-0.7-0.2-1.3-0.7-1.7c-0.5-0.4-1.1-0.5-1.8-0.3
								c-0.7,0.1-1.2,0.6-1.3,1.3c-0.1,0.5,0.2,1,0.7,1.2c0.4,0.1,0.7,0.2,1,0.1c0.5-0.2,0.7-0.7,0.7-0.7c0-0.1,0-0.2-0.1-0.3
								c-0.1,0-0.2,0-0.3,0.1l0,0c0,0-0.2,0.4-0.5,0.5c-0.2,0.1-0.4,0.1-0.7,0c-0.4-0.2-0.5-0.5-0.4-0.8c0-0.3,0.3-0.8,0.9-0.9
								c0.5-0.1,1,0,1.4,0.3c0.4,0.3,0.6,0.8,0.5,1.4c0,0.7-0.7,1.4-1.5,1.6c-0.5,0.2-1.9,0.4-3.2-0.9c-0.4-0.4-0.8-0.9-1.1-1.5
								c-1.1-1.6-2.6-3.7-5.9-3.6C287.6,298.3,286.8,298.5,286.2,298.8z"/>
						</g>
						<g>
							<path class="st3" d="M288.5,299.3c-0.1,0-0.1,0.1-0.1,0.2c0,0.1,0.1,0.2,0.2,0.2c0,0,2.4,0,4.3,2.8c0.9,1.3,1.2,2.4,0.8,3.2
								c-0.3,0.7-1.1,0.9-1.5,1c-0.6,0.1-1.1-0.1-1.5-0.6c-0.3-0.4-0.5-1-0.2-1.6c0.4-0.6,0.9-0.6,1.2-0.6c0.5,0.1,0.8,0.4,0.9,0.7
								c0.1,0.3,0,0.5-0.1,0.7c-0.1,0.2-0.4,0.2-0.6,0.2c-0.3,0-0.5-0.2-0.5-0.4c0-0.1,0-0.2,0.1-0.3c0.1-0.1,0.1-0.2,0.1-0.3
								c-0.1-0.1-0.2-0.1-0.3-0.1c-0.3,0.2-0.4,0.5-0.3,0.8c0.1,0.4,0.5,0.6,0.9,0.6c0.4,0,0.7-0.1,1-0.4c0.3-0.3,0.3-0.6,0.2-1.1
								c-0.1-0.5-0.7-1-1.3-1.1c-0.7-0.1-1.3,0.2-1.6,0.8c-0.4,0.6-0.3,1.4,0.2,2.1c0.5,0.6,1.3,0.9,2,0.7c0.5-0.1,1.4-0.4,1.8-1.2
								c0.4-0.9,0.1-2.1-0.9-3.6C291.2,299.2,288.7,299.3,288.5,299.3C288.6,299.3,288.5,299.3,288.5,299.3z"/>
						</g>
					</g>
				</g>
				<g>
					<g>
						<g>
							<path class="st3" d="M268.7,303.1c0-0.1-0.1-0.1-0.2-0.1c-0.1,0-0.2,0.1-0.3,0.2c0,0-0.5,2.1-4,3.2c-1.6,0.5-2.9,0.5-3.7,0.1
								c-0.7-0.4-0.8-1.1-0.8-1.5c0-0.5,0.4-1,1-1.2c0.5-0.2,1.2-0.3,1.8,0.2c0.6,0.5,0.5,0.9,0.4,1.2c-0.2,0.4-0.6,0.7-1,0.7
								c-0.3,0-0.6-0.1-0.7-0.3c-0.1-0.2-0.2-0.4-0.1-0.6c0.1-0.2,0.3-0.4,0.5-0.4c0.1,0,0.3,0,0.4,0.2c0,0.1,0.2,0.2,0.3,0.1
								c0.1,0,0.2-0.2,0.1-0.3c-0.1-0.3-0.4-0.5-0.8-0.4c-0.4,0-0.8,0.3-0.9,0.7c-0.1,0.3,0,0.7,0.2,0.9c0.2,0.3,0.6,0.4,1.1,0.4
								c0.6,0,1.2-0.4,1.4-0.9c0.2-0.6,0-1.2-0.6-1.6c-0.6-0.5-1.5-0.6-2.3-0.2c-0.8,0.3-1.2,0.9-1.2,1.6c0,0.5,0.1,1.3,1,1.8
								c0.9,0.6,2.3,0.6,4.1,0C268.3,305.5,268.7,303.3,268.7,303.1C268.8,303.2,268.8,303.2,268.7,303.1z"/>
						</g>
						<g>
							<path class="st3" d="M252.1,305.7c0.6,0.8,1.9,1.2,3.9,1.2c1.9,0,3.2-0.4,4.1-0.9c-0.1-0.1-0.1-0.2-0.2-0.4
								c-0.8,0.4-2,0.9-3.9,0.9c-1.7,0-3-0.4-3.5-1c-0.5-0.6-0.3-1.3-0.2-1.7c0.2-0.5,0.7-0.8,1.4-0.9c0.5,0,1.3,0.1,1.6,0.7
								c0.4,0.6,0.1,1,0,1.2c-0.3,0.3-0.8,0.5-1.2,0.3c-0.3-0.1-0.5-0.3-0.6-0.5c-0.1-0.2,0-0.4,0.1-0.6c0.2-0.2,0.4-0.3,0.6-0.2
								c0.1,0,0.3,0.1,0.3,0.3c0,0.1,0.1,0.2,0.2,0.2c0.1,0,0.2-0.1,0.2-0.2c0-0.3-0.2-0.6-0.6-0.7c-0.4-0.1-0.9,0.1-1.1,0.4
								c-0.2,0.3-0.3,0.6-0.1,0.9c0.1,0.3,0.4,0.6,0.9,0.7c0.6,0.2,1.3,0,1.7-0.5c0.4-0.5,0.5-1.1,0.1-1.7c-0.4-0.6-1.2-1-2.1-0.9
								c-0.8,0.1-1.5,0.5-1.7,1.1C251.7,304.2,251.5,305,252.1,305.7z"/>
						</g>
					</g>
					<g>
						<g>
							<path class="st3" d="M300.1,303.1c0-0.1,0.1-0.1,0.2-0.1c0.1,0,0.2,0.1,0.3,0.2c0,0,0.5,2.1,4,3.2c1.6,0.5,2.9,0.5,3.7,0.1
								c0.7-0.4,0.8-1.1,0.8-1.5c0-0.5-0.4-1-1-1.2c-0.5-0.2-1.2-0.3-1.8,0.2c-0.6,0.5-0.5,0.9-0.4,1.2c0.2,0.4,0.6,0.7,1,0.7
								c0.3,0,0.6-0.1,0.7-0.3c0.1-0.2,0.2-0.4,0.1-0.6c-0.1-0.2-0.3-0.4-0.5-0.4c-0.1,0-0.3,0-0.4,0.2c0,0.1-0.2,0.2-0.3,0.1
								c-0.1,0-0.2-0.2-0.1-0.3c0.1-0.3,0.4-0.5,0.8-0.4c0.4,0,0.8,0.3,0.9,0.7c0.1,0.3,0,0.7-0.2,0.9c-0.2,0.3-0.6,0.4-1.1,0.4
								c-0.6,0-1.2-0.4-1.4-0.9c-0.2-0.6,0-1.2,0.6-1.6c0.6-0.5,1.5-0.6,2.3-0.2c0.8,0.3,1.2,0.9,1.2,1.6c0,0.5-0.1,1.3-1,1.8
								c-0.9,0.6-2.3,0.6-4.1,0C300.6,305.5,300.1,303.3,300.1,303.1C300.1,303.2,300.1,303.2,300.1,303.1z"/>
						</g>
						<g>
							<path class="st3" d="M316.7,305.7c-0.6,0.8-1.9,1.2-3.9,1.2c-1.9,0-3.2-0.4-4.1-0.9c0.1-0.1,0.1-0.2,0.2-0.4
								c0.8,0.4,2,0.9,3.9,0.9c1.7,0,3-0.4,3.5-1c0.5-0.6,0.3-1.3,0.2-1.7c-0.2-0.5-0.7-0.8-1.4-0.9c-0.5,0-1.3,0.1-1.6,0.7
								c-0.4,0.6-0.1,1,0,1.2c0.3,0.3,0.8,0.5,1.2,0.3c0.3-0.1,0.5-0.3,0.6-0.5c0.1-0.2,0-0.4-0.1-0.6c-0.2-0.2-0.4-0.3-0.6-0.2
								c-0.1,0-0.3,0.1-0.3,0.3c0,0.1-0.1,0.2-0.2,0.2c-0.1,0-0.2-0.1-0.2-0.2c0-0.3,0.2-0.6,0.6-0.7c0.4-0.1,0.9,0.1,1.1,0.4
								c0.2,0.3,0.3,0.6,0.1,0.9c-0.1,0.3-0.4,0.6-0.9,0.7c-0.6,0.2-1.3,0-1.7-0.5c-0.4-0.5-0.5-1.1-0.1-1.7c0.4-0.6,1.2-1,2.1-0.9
								c0.8,0.1,1.5,0.5,1.7,1.1C317.1,304.2,317.3,305,316.7,305.7z"/>
						</g>
					</g>
				</g>
			</g>
		</g>
		<text transform="matrix(0.6638 0 0 1 220.9531 269.5108)" class="st4 st5 st6">Sj kitchen</text>
		<g>
			<text transform="matrix(1.1173 0 0 1 242.4512 238.7608)" class="st7 st8 st9">We serve passion</text>
			<g>
				<g>
					<rect x="232.6" y="242.8" width="103.6" height="0.6"/>
				</g>
				<g>
					<rect x="232.6" y="227.7" width="103.6" height="0.6"/>
				</g>
			</g>
		</g>
		<text transform="matrix(1.1173 0 0 1 259.3955 316.4854)" class="st4 st10 st9">SINCE 1985</text>
		<text transform="matrix(1.1173 0 0 1 255.875 289.3838)" class="st0 st8 st11">ORIGINAL TASTE</text>
		<rect x="205.6" y="157.5" class="st12" width="138.9" height="200"/>
	</g>
</g>
</svg>
